<svg width="884" height="515" viewBox="0 0 884 515" fill="none" xmlns="http://www.w3.org/2000/svg">
<rect y="181.031" width="333" height="333" rx="20" fill="white"/>
<path d="M454.48 270.952C442.036 270.952 431.91 266.56 424.712 258.752C417.148 250.456 413 238.988 413 225.69C413 212.026 417.636 199.948 425.932 191.652C433.13 184.332 443.256 180.062 455.822 180.062C478.27 180.062 491.69 192.018 494.496 210.318H473.512C471.926 203.242 466.07 197.874 456.554 197.874C442.158 197.874 434.96 209.83 434.96 225.69C434.96 241.672 443.256 253.506 456.92 253.506C468.266 253.506 474.976 245.942 475.83 238.256V238.012H459.482V222.152H495.838V269H480.71L479.49 258.508H479.246C473.512 267.414 464.972 270.952 454.48 270.952Z" fill="white"/>
<path d="M506.367 269V181.77H548.091C565.415 181.77 578.591 190.676 578.591 206.902C578.591 217.028 573.589 224.47 563.463 228.008V228.374C571.027 230.936 574.931 235.694 576.151 244.356C577.981 255.824 576.761 266.804 579.811 267.902V269H558.827C556.509 267.658 556.875 257.41 555.533 248.748C554.435 240.696 550.287 236.304 541.015 236.304H527.961V269H506.367ZM527.961 220.322H544.187C552.727 220.322 557.119 216.296 557.119 209.708C557.119 203.364 552.971 198.85 544.675 198.85H527.961V220.322Z" fill="white"/>
<path d="M627.867 253.506C642.019 253.506 648.973 241.428 648.973 225.568C648.973 209.708 642.019 197.508 627.867 197.508C613.837 197.508 606.639 209.708 606.639 225.568C606.639 241.428 613.837 253.506 627.867 253.506ZM627.745 271.074C601.393 271.074 584.679 251.676 584.679 225.568C584.679 199.46 601.393 180.062 627.745 180.062C654.219 180.062 670.933 199.46 670.933 225.568C670.933 251.676 654.219 271.074 627.745 271.074Z" fill="white"/>
<path d="M715.349 270.586C690.949 270.586 678.749 258.63 678.749 238.256V181.77H700.343V238.988C700.343 247.528 704.735 253.262 715.349 253.262C725.353 253.262 730.111 247.162 730.111 238.622V181.77H751.705V238.256C751.705 258.386 739.627 270.586 715.349 270.586Z" fill="white"/>
<path d="M762.996 269V181.77H802.28C812.894 181.77 820.702 184.698 826.07 189.822C831.682 195.068 834.854 202.51 834.854 211.294C834.854 228.008 823.264 239.842 805.33 239.842H784.956V269H762.996ZM784.956 222.762H800.938C808.746 222.762 813.138 218.126 813.138 211.172C813.138 204.218 808.624 199.948 800.938 199.948H784.956V222.762Z" fill="white"/>
<path d="M438.01 373.822H450.698C464.85 373.822 472.17 364.916 472.17 348.934C472.17 333.074 464.484 322.826 450.942 322.826H438.01V373.822ZM416.416 392V304.77H453.626C477.782 304.77 494.008 322.216 494.008 348.934C494.008 364.306 488.64 376.628 478.88 384.07C472.048 389.194 463.264 392 452.284 392H416.416Z" fill="white"/>
<path d="M502.436 392V304.77H568.56V322.582H524.03V338.198H562.216V355.034H524.03V373.7H569.292V392H502.436Z" fill="white"/>
<path d="M573.539 392L604.893 304.77H627.097L658.573 392H635.881L630.757 376.262H600.257L595.255 392H573.539ZM605.259 360.768H625.755L619.167 339.662C617.703 335.148 615.751 327.34 615.751 327.34H615.507C615.507 327.34 613.433 335.148 611.969 339.662L605.259 360.768Z" fill="white"/>
<path d="M664.705 392V304.77H686.299V373.7H725.461V392H664.705Z" fill="white"/>
<path d="M733.687 392V304.77H799.811V322.582H755.281V338.198H793.467V355.034H755.281V373.7H800.543V392H733.687Z" fill="white"/>
<path d="M810.295 392V304.77H852.019C869.343 304.77 882.519 313.676 882.519 329.902C882.519 340.028 877.517 347.47 867.391 351.008V351.374C874.955 353.936 878.859 358.694 880.079 367.356C881.909 378.824 880.689 389.804 883.739 390.902V392H862.755C860.437 390.658 860.803 380.41 859.461 371.748C858.363 363.696 854.215 359.304 844.943 359.304H831.889V392H810.295ZM831.889 343.322H848.115C856.655 343.322 861.047 339.296 861.047 332.708C861.047 326.364 856.899 321.85 848.603 321.85H831.889V343.322Z" fill="white"/>
<path d="M416.416 515V427.77H438.132L463.996 471.568C465.338 474.008 469.974 482.67 469.974 482.67H470.218C470.218 482.67 469.974 472.178 469.974 469.128V427.77H491.08V515H469.364L443.744 471.812C442.28 469.494 437.522 460.1 437.522 460.1H437.278C437.278 460.1 437.522 471.324 437.522 474.374V515H416.416Z" fill="white"/>
<path d="M496.931 515L528.285 427.77H550.489L581.965 515H559.273L554.149 499.262H523.649L518.647 515H496.931ZM528.651 483.768H549.147L542.559 462.662C541.095 458.148 539.143 450.34 539.143 450.34H538.899C538.899 450.34 536.825 458.148 535.361 462.662L528.651 483.768Z" fill="white"/>
<path d="M588.098 515V427.77H617.134L627.748 465.956C629.334 471.446 632.75 485.842 632.75 485.842H632.994C632.994 485.842 636.41 471.446 637.874 465.956L648.61 427.77H677.89V515H658.126V471.08C658.126 467.542 658.492 453.634 658.492 453.634H658.248C658.248 453.634 655.198 466.688 654.222 469.86L641.656 515H623.844L611.4 469.982C610.424 466.81 607.374 453.634 607.374 453.634H607.13C607.13 453.634 607.496 467.664 607.496 471.202V515H588.098Z" fill="white"/>
<path d="M689.844 515V427.77H755.968V445.582H711.438V461.198H749.624V478.034H711.438V496.7H756.7V515H689.844Z" fill="white"/>
</svg>
